<svg id="Capa_1" enable-background="new 0 0 567.103 567.103" height="512" viewBox="0 0 567.103 567.103" width="512" xmlns="http://www.w3.org/2000/svg"><g><path fill="#fff" d="m121.522 450.644c0 5.592-4.534 10.127-10.127 10.127s-10.127-4.534-10.127-10.127 4.534-10.127 10.127-10.127 10.127 4.535 10.127 10.127z"/><path fill="#fff" d="m424.788 441.734c-.534-4.346-1.478-8.634-2.814-12.802-6.453-19.942-21.396-36.013-40.819-43.899-.925-.376-1.844-.727-2.789-1.063-20.234-7.308-42.698-5.019-61.043 6.225-18.34 11.239-30.578 30.217-33.248 51.569-.351 2.947-.529 5.914-.524 8.881 0 39.152 31.735 70.888 70.888 70.888s70.888-31.735 70.888-70.888c.005-2.978-.173-5.954-.539-8.911zm-70.349 39.291c-16.778 0-30.38-13.603-30.38-30.381 0-16.777 13.603-30.38 30.38-30.38s30.38 13.603 30.38 30.38c.001 16.778-13.602 30.381-30.38 30.381z"/><path fill="#fff" d="m443.311 430.421h22.523v-38.747l-20.254-62.551h-263.297c-11.185 0-20.254-9.069-20.254-20.254v-202.537c0-11.185 9.069-20.254 20.254-20.254h184.775l-7.556-23.413c-1.404-4.129-5.261-6.923-9.622-6.967h-218.231c-5.593 0-10.127 4.534-10.127 10.127v172.156c0 5.593-4.534 10.127-10.127 10.127h-101.268c-5.593-.001-10.127 4.534-10.127 10.126v172.156h22.494c9.584-41.171 46.581-70.552 88.847-70.561 42.28-.009 79.298 29.376 88.885 70.561h65.236c9.589-41.711 47.127-71.355 89.684-71 42.013.351 78.717 29.854 88.165 71.031z"/><path fill="#fff" d="m556.976 450.644h-40.507c-5.592 0-10.127-4.534-10.127-10.127v-384.819c0-5.593-4.534-10.127-10.127-10.127s-10.127 4.534-10.127 10.127v405.073c0 5.592 4.534 10.127 10.127 10.127h60.761c5.593 0 10.127-4.534 10.127-10.127s-4.535-10.127-10.127-10.127z"/><path fill="#fff" d="m364.566 450.644c0 5.592-4.534 10.127-10.127 10.127s-10.127-4.534-10.127-10.127 4.534-10.127 10.127-10.127 10.127 4.535 10.127 10.127z"/><path fill="#fff" d="m439.059 308.868-65.449-202.536h-191.327v202.537h182.283v-46.441l-20.254-20.254-13.094 13.094c-3.976 3.837-10.29 3.783-14.196-.124-3.906-3.906-3.961-10.221-.124-14.196l40.507-40.507c3.976-3.837 10.29-3.783 14.196.124 3.906 3.906 3.961 10.221.124 14.196l-13.094 13.094 23.221 23.221c1.899 1.899 2.967 4.475 2.967 7.16v50.634h54.24zm-115-30.38c0 5.592-4.534 10.127-10.127 10.127h-91.142c-11.185 0-20.254-9.069-20.254-20.254v-60.761c0-11.185 9.069-20.254 20.254-20.254h20.254c11.185 0 20.254 9.069 20.254 20.254v60.761h50.634c5.592 0 10.127 4.534 10.127 10.127z"/><path fill="#fff" d="m222.79 207.6h20.254v60.761h-20.254z"/><path fill="#fff" d="m181.744 441.734c-.534-4.346-1.478-8.634-2.814-12.802-6.453-19.942-21.396-36.013-40.819-43.899-.925-.376-1.844-.727-2.789-1.063-20.234-7.308-42.698-5.019-61.043 6.225-18.34 11.239-30.578 30.217-33.248 51.569-.351 2.947-.529 5.914-.524 8.881 0 39.152 31.735 70.888 70.888 70.888s70.888-31.735 70.888-70.888c.005-2.978-.173-5.954-.539-8.911zm-70.349 39.291c-16.778 0-30.381-13.603-30.381-30.381 0-16.777 13.603-30.38 30.381-30.38s30.381 13.603 30.381 30.38c0 16.778-13.603 30.381-30.381 30.381z"/></g></svg>